GIL11_fast2_ik
nRows=3
nColumns=375

# SIMM Motion File Header:
name GIL11_fast2_ik
datacolumns 375
datarows 3
otherdata 1
range 0.50000000 0.51667000
endheader
time	pelvis_tx	pelvis_ty	pelvis_tz	pelvis_tilt	pelvis_list	pelvis_rotation	hip_flexion_r	hip_adduction_r	hip_rotation_r	knee_angle_r	ankle_angle_r	hip_flexion_l	hip_adduction_l	hip_rotation_l	knee_angle_l	ankle_angle_l	lumbar_extension	lumbar_bending	lumbar_rotation	subtalar_angle_r	mtp_angle_r	subtalar_angle_l	mtp_angle_l	asis_r_px	asis_r_py	asis_r_pz	asis_l_px	asis_l_py	asis_l_pz	midasis_px	midasis_py	midasis_pz	psis_r_px	psis_r_py	psis_r_pz	psis_l_px	psis_l_py	psis_l_pz	hip_r_px	hip_r_py	hip_r_pz	hip_l_px	hip_l_py	hip_l_pz	midhip_px	midhip_py	midhip_pz	epicondLat_r_px	epicondLat_r_py	epicondLat_r_pz	epicondMed_r_px	epicondMed_r_py	epicondMed_r_pz	thighwand_r_px	thighwand_r_py	thighwand_r_pz	upperleg1_r_px	upperleg1_r_py	upperleg1_r_pz	upperleg2_r_px	upperleg2_r_py	upperleg2_r_pz	malleolusLat_r_px	malleolusLat_r_py	malleolusLat_r_pz	malleolusMedv_r_px	malleolusMedv_r_py	malleolusMedv_r_pz	shankwand_r_px	shankwand_r_py	shankwand_r_pz	lowerleg1_r_px	lowerleg1_r_py	lowerleg1_r_pz	knee_r_px	knee_r_py	knee_r_pz	ankle_r_px	ankle_r_py	ankle_r_pz	toe_r_px	toe_r_py	toe_r_pz	epicondLat_l_px	epicondLat_l_py	epicondLat_l_pz	epicondMed_l_px	epicondMed_l_py	epicondMed_l_pz	thighwand_l_px	thighwand_l_py	thighwand_l_pz	upperleg1_l_px	upperleg1_l_py	upperleg1_l_pz	upperleg2_l_px	upperleg2_l_py	upperleg2_l_pz	malleolusLat_l_px	malleolusLat_l_py	malleolusLat_l_pz	malleolusMedv_l_px	malleolusMedv_l_py	malleolusMedv_l_pz	shankwand_l_px	shankwand_l_py	shankwand_l_pz	lowerleg1_l_px	lowerleg1_l_py	lowerleg1_l_pz	knee_l_px	knee_l_py	knee_l_pz	ankle_l_px	ankle_l_py	ankle_l_pz	toe_l_px	toe_l_py	toe_l_pz	subclavicle_r_px	subclavicle_r_py	subclavicle_r_pz	subclavicle_l_px	subclavicle_l_py	subclavicle_l_pz	neck_px	neck_py	neck_pz	sternalnotch_px	sternalnotch_py	sternalnotch_pz	xyphoidprocess_px	xyphoidprocess_py	xyphoidprocess_pz	midhip_tx	midhip_ty	midhip_tz	hip_r_tx	hip_r_ty	hip_r_tz	hip_l_tx	hip_l_ty	hip_l_tz	knee_r_tx	knee_r_ty	knee_r_tz	knee_l_tx	knee_l_ty	knee_l_tz	ankle_r_tx	ankle_r_ty	ankle_r_tz	ankle_l_tx	ankle_l_ty	ankle_l_tz	midasis_tx	midasis_ty	midasis_tz	asis_r_tx	asis_r_ty	asis_r_tz	asis_l_tx	asis_l_ty	asis_l_tz	psis_r_tx	psis_r_ty	psis_r_tz	psis_l_tx	psis_l_ty	psis_l_tz	epicondLat_r_tx	epicondLat_r_ty	epicondLat_r_tz	epicondLat_l_tx	epicondLat_l_ty	epicondLat_l_tz	epicondMed_r_tx	epicondMed_r_ty	epicondMed_r_tz	epicondMed_l_tx	epicondMed_l_ty	epicondMed_l_tz	malleolusLat_r_tx	malleolusLat_r_ty	malleolusLat_r_tz	malleolusLat_l_tx	malleolusLat_l_ty	malleolusLat_l_tz	malleolusMedv_r_tx	malleolusMedv_r_ty	malleolusMedv_r_tz	malleolusMedv_l_tx	malleolusMedv_l_ty	malleolusMedv_l_tz	neck_tx	neck_ty	neck_tz	subclavicle_r_tx	subclavicle_r_ty	subclavicle_r_tz	subclavicle_l_tx	subclavicle_l_ty	subclavicle_l_tz	sternalnotch_tx	sternalnotch_ty	sternalnotch_tz	xyphoidprocess_tx	xyphoidprocess_ty	xyphoidprocess_tz	thighwand_r_tx	thighwand_r_ty	thighwand_r_tz	thighwand_l_tx	thighwand_l_ty	thighwand_l_tz	upperleg1_r_tx	upperleg1_r_ty	upperleg1_r_tz	upperleg1_l_tx	upperleg1_l_ty	upperleg1_l_tz	upperleg2_r_tx	upperleg2_r_ty	upperleg2_r_tz	upperleg2_l_tx	upperleg2_l_ty	upperleg2_l_tz	shankwand_r_tx	shankwand_r_ty	shankwand_r_tz	shankwand_l_tx	shankwand_l_ty	shankwand_l_tz	lowerleg1_r_tx	lowerleg1_r_ty	lowerleg1_r_tz	lowerleg1_l_tx	lowerleg1_l_ty	lowerleg1_l_tz	toe_r_tx	toe_r_ty	toe_r_tz	toe_l_tx	toe_l_ty	toe_l_tz	ground_force_vx	ground_force_vy	ground_force_vz	ground_force_px	ground_force_py	ground_force_pz	ground_force_vx	ground_force_vy	ground_force_vz	ground_force_px	ground_force_py	ground_force_pz	ground_torque_x	ground_torque_y	ground_torque_z	ground_torque_x	ground_torque_y	ground_torque_z	ground_marker_px	ground_marker_py	ground_marker_pz	ground_marker_px	ground_marker_py	ground_marker_pz	ground_marker_px	ground_marker_py	ground_marker_pz	ground_marker_px	ground_marker_py	ground_marker_pz	ground_marker_px	ground_marker_py	ground_marker_pz	ground_marker_px	ground_marker_py	ground_marker_pz	ground_marker_px	ground_marker_py	ground_marker_pz	ground_marker_px	ground_marker_py	ground_marker_pz	ground_marker_px	ground_marker_py	ground_marker_pz	ground_marker_px	ground_marker_py	ground_marker_pz	ground_marker_px	ground_marker_py	ground_marker_pz	ground_marker_px	ground_marker_py	ground_marker_pz	ground_marker_px	ground_marker_py	ground_marker_pz	ground_marker_px	ground_marker_py	ground_marker_pz	ground_marker_px	ground_marker_py	ground_marker_pz	ground_marker_px	ground_marker_py	ground_marker_pz	ground_marker_px	ground_marker_py	ground_marker_pz	ground_marker_px	ground_marker_py	ground_marker_pz	ground_marker_px	ground_marker_py	ground_marker_pz	ground_marker_px	ground_marker_py	ground_marker_pz	ground_marker_px	ground_marker_py	ground_marker_pz	ground_marker_px	ground_marker_py	ground_marker_pz	ground_marker_px	ground_marker_py	ground_marker_pz	ground_marker_px	ground_marker_py	ground_marker_pz	ground_marker_px	ground_marker_py	ground_marker_pz	ground_marker_px	ground_marker_py	ground_marker_pz	ground_marker_px	ground_marker_py	ground_marker_pz	ground_marker_px	ground_marker_py	ground_marker_pz	ground_marker_px	ground_marker_py	ground_marker_pz	ground_marker_px	ground_marker_py	ground_marker_pz	ground_marker_px	ground_marker_py	ground_marker_pz	ground_marker_px	ground_marker_py	ground_marker_pz	ground_marker_px	ground_marker_py	ground_marker_pz	ground_marker_px	ground_marker_py	ground_marker_pz	ground_marker_px	ground_marker_py	ground_marker_pz	ground_marker_px	ground_marker_py	ground_marker_pz	ground_marker_px	ground_marker_py	ground_marker_pz
      0.50000000	      1.92273613	      0.83819570	     -0.25998311	     -4.38085647	      4.34321302	     -1.66748088	    -16.07982412	     -4.96711999	      0.70509079	    -21.83199004	    -12.77060948	     31.28694930	      4.26704890	      9.40773765	    -19.25918599	     -4.69211907	     -3.51993122	     -7.24020459	      7.72422933	      0.00000000	      0.00000000	      0.00000000	      0.00000000	      1.96672806	      0.81619177	     -0.14890176	      1.97332974	      0.83687861	     -0.38313436	      1.93555558	      0.83718518	     -0.25960984	      1.78146255	      0.90719411	     -0.23112907	      1.77959525	      0.90822777	     -0.28579474	      1.85070176	      0.77729009	     -0.18999238	      1.85604147	      0.78853153	     -0.34294357	      1.85337162	      0.78291081	     -0.26646798	      1.73335112	      0.40287665	     -0.12666011	      1.73263258	      0.40170492	     -0.24372089	      1.92880796	      0.47418448	     -0.20198085	      1.88533369	      0.54735023	     -0.15014117	      1.84198683	      0.47079268	     -0.14735456	      1.44247436	      0.14917000	     -0.13770840	      1.46917373	      0.12823750	     -0.20503780	      1.48727951	      0.21530957	     -0.07258621	      1.49868241	      0.21612036	     -0.11538460	      1.71694912	      0.42208307	     -0.18778850	      1.46553797	      0.14650654	     -0.18503151	      1.48225415	      0.04148622	     -0.12201910	      2.07315417	      0.45325928	     -0.39517301	      2.04192578	      0.45131678	     -0.27528772	      2.06079389	      0.59153793	     -0.47285789	      1.97328783	      0.60598727	     -0.43048027	      2.01557126	      0.53030496	     -0.41416840	      2.07386881	      0.06640950	     -0.40551858	      2.07824046	      0.07258387	     -0.33525118	      2.15457827	      0.19574486	     -0.33096374	      2.11584969	      0.19047627	     -0.34698088	      2.02521229	      0.44920588	     -0.33384439	      2.07638212	      0.08019127	     -0.35301331	      2.18769279	      0.04373356	     -0.37244822	      1.94883680	      1.29162869	     -0.22939378	      1.93860963	      1.28393867	     -0.33451995	      1.81611404	      1.33391324	     -0.26842214	      1.94070482	      1.28415590	     -0.28085890	      1.98874783	      1.22015442	     -0.28471067	      1.86258100	      0.79350900	     -0.27718500	      1.84305300	      0.76677500	     -0.19417000	      1.84486100	      0.77814000	     -0.34586200	      1.71658200	      0.42333400	     -0.19272800	      2.02567300	      0.42762100	     -0.34026100	      1.46043100	      0.13952500	     -0.18984200	      2.07272000	      0.06911300	     -0.33447800	      1.93386900	      0.84641100	     -0.26035400	      1.92855800	      0.83741400	     -0.14206600	      1.93918000	      0.85540800	     -0.37864300	      1.73937900	      0.90597100	     -0.24371800	      1.73635100	      0.90175200	     -0.29904200	      1.71650500	      0.42360600	     -0.13472800	      2.03835900	      0.43326500	     -0.39657500	      1.72355300	      0.42610600	     -0.25178900	      2.02819800	      0.43994100	     -0.27471100	      1.44767300	      0.15140600	     -0.15384100	      2.06387700	      0.06732400	     -0.37344700	      1.47278200	      0.13809500	     -0.22250000	      2.08346000	      0.07961000	     -0.30906200	      1.81684200	      1.34514300	     -0.26882400	      1.94916900	      1.28868100	     -0.22902100	      1.93953300	      1.28186500	     -0.33449000	      1.94085700	      1.28257000	     -0.28081600	      1.98299200	      1.21377800	     -0.28397600	      1.91880900	      0.49479700	     -0.19765900	      2.02938200	      0.56281300	     -0.48420300	      1.87205100	      0.56701900	     -0.14478100	      1.94633400	      0.58282100	     -0.43429800	      1.82792000	      0.49053700	     -0.14715700	      1.98896500	      0.50856800	     -0.41633200	      1.49169500	      0.22164900	     -0.08533100	      2.14753200	      0.20923800	     -0.31861600	      1.49696000	      0.22326000	     -0.12762300	      2.11074500	      0.20176600	     -0.33166100	      1.49567000	      0.04778100	     -0.16768400	      2.18330600	      0.05212100	     -0.35502400	     70.03042272	    235.74303480	      2.83878287	      1.52019336	      0.00000000	     -0.18499182	    -72.20105604	    513.24382110	     -6.65628963	      2.06841772	      0.00000000	     -0.34048712	      0.00000000	      0.43481284	      0.00000000	      0.00000000	      1.21848987	      0.00000000	      1.86258090	      0.79350859	     -0.27718493	      1.84305322	      0.76677454	     -0.19417028	      1.84486103	      0.77814037	     -0.34586194	      1.71658230	      0.42333427	     -0.19272752	      2.02567339	      0.42762059	     -0.34026149	      1.46043110	      0.13952497	     -0.18984224	      2.07271981	      0.06911343	     -0.33447790	      1.93386924	      0.84641129	     -0.26035437	      1.92855835	      0.83741432	     -0.14206551	      1.93918014	      0.85540825	     -0.37864324	      1.73937917	      0.90597075	     -0.24371836	      1.73635125	      0.90175211	     -0.29904187	      1.71650541	      0.42360622	     -0.13472821	      2.03835917	      0.43326473	     -0.39657497	      1.72355318	      0.42610568	     -0.25178885	      2.02819753	      0.43994126	     -0.27471074	      1.44767308	      0.15140563	     -0.15384109	      2.06387687	      0.06732433	     -0.37344718	      1.47278237	      0.13809462	     -0.22249998	      2.08345985	      0.07960967	     -0.30906156	      1.81684184	      1.34514272	     -0.26882383	      1.94916904	      1.28868139	     -0.22902140	      1.93953323	      1.28186500	     -0.33448973	      1.94085705	      1.28256953	     -0.28081611	      1.98299170	      1.21377850	     -0.28397572	      1.91880858	      0.49479681	     -0.19765875	      2.02938151	      0.56281298	     -0.48420289	      1.87205112	      0.56701899	     -0.14478061	      1.94633377	      0.58282125	     -0.43429837	      1.82791960	      0.49053720	     -0.14715666	      1.98896503	      0.50856787	     -0.41633210	      1.49169493	      0.22164936	     -0.08533082	      2.14753151	      0.20923814	     -0.31861594	      1.49696040	      0.22325987	     -0.12762301	      2.11074495	      0.20176619	     -0.33166057	      1.49566996	      0.04778053	     -0.16768445	      2.18330622	      0.05212109	     -0.35502362
      0.50833000	      1.93765948	      0.83882995	     -0.26211787	     -4.37279477	      4.67687949	     -1.47141250	    -15.28951956	     -5.63659920	      0.53356129	    -24.32270899	    -16.20186064	     31.22899560	      5.09942589	     10.10819579	    -21.08744852	     -4.16684644	     -3.44003591	     -7.53017164	      7.28634722	      0.00000000	      0.00000000	      0.00000000	      0.00000000	      1.98198865	      0.81617100	     -0.15130260	      1.98788908	      0.83828115	     -0.38542386	      1.95048038	      0.83782255	     -0.26178863	      1.79644423	      0.90759288	     -0.23242827	      1.79441481	      0.90895736	     -0.28708090	      1.86585690	      0.77747072	     -0.19228537	      1.87073961	      0.78964203	     -0.34518065	      1.86829825	      0.78355637	     -0.26873301	      1.75400489	      0.40185231	     -0.12619817	      1.75294348	      0.39991959	     -0.24324625	      1.94820212	      0.47542700	     -0.20258925	      1.90385750	      0.54830295	     -0.15107961	      1.86160577	      0.47116068	     -0.14766825	      1.45524082	      0.15559285	     -0.13471065	      1.48111804	      0.13343344	     -0.20196839	      1.50215655	      0.22082536	     -0.07016238	      1.51345331	      0.22101330	     -0.11299617	      1.73745474	      0.41998971	     -0.18739421	      1.47807812	      0.15193545	     -0.18207711	      1.48583459	      0.04555683	     -0.11960560	      2.08818268	      0.45404373	     -0.39381822	      2.05522784	      0.45230354	     -0.27439285	      2.07710780	      0.59222926	     -0.47186186	      1.98901749	      0.60683968	     -0.43076940	      2.03097129	      0.53113050	     -0.41374659	      2.07693001	      0.06633430	     -0.40642086	      2.08065687	      0.07198085	     -0.33607196	      2.16085987	      0.19259209	     -0.33016586	      2.12217630	      0.18866206	     -0.34666877	      2.03975712	      0.45010310	     -0.33309005	      2.07925685	      0.07974105	     -0.35381001	      2.18990008	      0.04079498	     -0.37220089	      1.96286029	      1.29243941	     -0.23034885	      1.95307021	      1.28472282	     -0.33551468	      1.83020826	      1.33444877	     -0.26991119	      1.95494995	      1.28494719	     -0.28184568	      2.00313955	      1.22104447	     -0.28550104	      1.87819700	      0.79505800	     -0.28084900	      1.85850100	      0.76657200	     -0.19603400	      1.85996800	      0.77900000	     -0.34764600	      1.73670600	      0.42054300	     -0.19212300	      2.04019600	      0.42867700	     -0.33961100	      1.47251100	      0.14445700	     -0.18783100	      2.07510200	      0.06878600	     -0.33376700	      1.94910900	      0.84674200	     -0.26185700	      1.94407900	      0.83694200	     -0.14396500	      1.95414000	      0.85654300	     -0.37975000	      1.75456200	      0.90588900	     -0.24389800	      1.75092800	      0.90241200	     -0.29926500	      1.73677700	      0.42117300	     -0.13412700	      2.05374000	      0.43435800	     -0.39572000	      1.74471900	      0.42199400	     -0.25119000	      2.04451000	      0.44314500	     -0.27494600	      1.46019100	      0.15680500	     -0.15183500	      2.06733800	      0.06739600	     -0.37298200	      1.48469600	      0.14192000	     -0.22009700	      2.08572900	      0.07892800	     -0.30832600	      1.83095200	      1.34591000	     -0.27028800	      1.96357700	      1.28989700	     -0.22992900	      1.95358300	      1.28196900	     -0.33623400	      1.95501300	      1.28308000	     -0.28187200	      1.99726200	      1.21444500	     -0.28470000	      1.93861500	      0.49472700	     -0.19806600	      2.04603600	      0.56462600	     -0.48367900	      1.89049700	      0.56640400	     -0.14541700	      1.96389700	      0.58604800	     -0.43545600	      1.84809600	      0.48931100	     -0.14721800	      2.00654100	      0.51134200	     -0.41692800	      1.50652400	      0.22606200	     -0.08360100	      2.15394800	      0.20627000	     -0.31526600	      1.51177900	      0.22724400	     -0.12607200	      2.11758000	      0.20009700	     -0.32874500	      1.50007600	      0.04925700	     -0.16736800	      2.18586900	      0.04902300	     -0.35373600	     46.88949257	    159.97896913	      5.19219724	      1.52500684	      0.00000000	     -0.18469208	    -88.41944644	    543.81931035	      8.38646654	      2.07611353	      0.00000000	     -0.34202423	      0.00000000	      0.27097205	      0.00000000	      0.00000000	      1.23444885	      0.00000000	      1.87819672	      0.79505759	     -0.28084904	      1.85850108	      0.76657152	     -0.19603425	      1.85996795	      0.77900034	     -0.34764618	      1.73670554	      0.42054287	     -0.19212322	      2.04019594	      0.42867714	     -0.33961079	      1.47251070	      0.14445689	     -0.18783104	      2.07510161	      0.06878600	     -0.33376741	      1.94910944	      0.84674233	     -0.26185733	      1.94407928	      0.83694178	     -0.14396507	      1.95413959	      0.85654289	     -0.37974963	      1.75456166	      0.90588886	     -0.24389799	      1.75092793	      0.90241170	     -0.29926461	      1.73677731	      0.42117313	     -0.13412669	      2.05373979	      0.43435800	     -0.39572039	      1.74471927	      0.42199406	     -0.25118965	      2.04451013	      0.44314498	     -0.27494594	      1.46019113	      0.15680549	     -0.15183465	      2.06733751	      0.06739625	     -0.37298205	      1.48469627	      0.14192039	     -0.22009714	      2.08572912	      0.07892819	     -0.30832586	      1.83095241	      1.34590995	     -0.27028754	      1.96357679	      1.28989720	     -0.22992882	      1.95358324	      1.28196859	     -0.33623436	      1.95501304	      1.28307950	     -0.28187233	      1.99726248	      1.21444476	     -0.28469983	      1.93861508	      0.49472749	     -0.19806620	      2.04603553	      0.56462580	     -0.48367885	      1.89049709	      0.56640351	     -0.14541662	      1.96389747	      0.58604831	     -0.43545556	      1.84809589	      0.48931056	     -0.14721832	      2.00654149	      0.51134175	     -0.41692850	      1.50652397	      0.22606167	     -0.08360131	      2.15394783	      0.20626976	     -0.31526616	      1.51177883	      0.22724426	     -0.12607214	      2.11757970	      0.20009716	     -0.32874504	      1.50007629	      0.04925655	     -0.16736798	      2.18586874	      0.04902260	     -0.35373586
      0.51667000	      1.95253908	      0.83966122	     -0.26416221	     -4.36889965	      5.06209612	     -1.25282595	    -14.32599364	     -6.34911418	      0.39662076	    -26.98415400	    -19.47560905	     31.06165803	      5.97746643	     10.71324590	    -22.75789581	     -3.35057835	     -3.36345477	     -7.89075149	      6.96058749	      0.00000000	      0.00000000	      0.00000000	      0.00000000	      1.99724000	      0.81624579	     -0.15365396	      2.00236426	      0.83999493	     -0.38763292	      1.96536137	      0.83865671	     -0.26388203	      1.81139580	      0.90815790	     -0.23352987	      1.80918665	      0.90990370	     -0.28816468	      1.88098922	      0.77778621	     -0.19452568	      1.88536590	      0.79102835	     -0.34734726	      1.88317756	      0.78440728	     -0.27093647	      1.77584938	      0.40071268	     -0.12575983	      1.77439121	      0.39805105	     -0.24278933	      1.96847212	      0.47714253	     -0.20332497	      1.92307182	      0.54955858	     -0.15208710	      1.88216423	      0.47172500	     -0.14805251	      1.46940122	      0.16203908	     -0.13170799	      1.49440284	      0.13869155	     -0.19889493	      1.51841271	      0.22629100	     -0.06773605	      1.52957254	      0.22586763	     -0.11060404	      1.75906050	      0.41770798	     -0.18699694	      1.49196951	      0.15740448	     -0.17911783	      1.49093741	      0.05048849	     -0.11709228	      2.10236018	      0.45466363	     -0.39257533	      2.06787736	      0.45325372	     -0.27357778	      2.09271592	      0.59273378	     -0.47101209	      2.00415414	      0.60769630	     -0.43107602	      2.04564974	      0.53188969	     -0.41337710	      2.07940438	      0.06654992	     -0.40726858	      2.08256067	      0.07174211	     -0.33685680	      2.16643805	      0.18974609	     -0.32950022	      2.12782736	      0.18711116	     -0.34642598	      2.05350501	      0.45094368	     -0.33237948	      2.08159267	      0.07962670	     -0.35456881	      2.19170564	      0.03881637	     -0.37207867	      1.97697703	      1.29341883	     -0.23138439	      1.96736927	      1.28567737	     -0.33656521	      1.84430952	      1.33517620	     -0.27116100	      1.96916296	      1.28590858	     -0.28289329	      2.01747842	      1.22209637	     -0.28646765	      1.89384800	      0.79694000	     -0.28363400	      1.87379200	      0.76650500	     -0.19808800	      1.87488400	      0.78010200	     -0.34960300	      1.75778100	      0.41753100	     -0.19158700	      2.05393400	      0.42946200	     -0.33910500	      1.48599000	      0.14954400	     -0.18612900	      2.07700200	      0.06855500	     -0.33319900	      1.96417600	      0.84725500	     -0.26351000	      1.95945200	      0.83657400	     -0.14602400	      1.96890100	      0.85793700	     -0.38099500	      1.76955400	      0.90593400	     -0.24366300	      1.76530800	      0.90319400	     -0.29905400	      1.75803000	      0.41852800	     -0.13359600	      2.06826100	      0.43510400	     -0.39502300	      1.76643200	      0.41701000	     -0.24920900	      2.05909200	      0.44398200	     -0.27599000	      1.47420000	      0.16223700	     -0.15007500	      2.07024400	      0.06747800	     -0.37261000	      1.49807100	      0.14629700	     -0.21808100	      2.08772900	      0.07853800	     -0.30755000	      1.84529300	      1.34690400	     -0.27156700	      1.97779400	      1.29124100	     -0.23091900	      1.96737500	      1.28275400	     -0.33751700	      1.96916000	      1.28385200	     -0.28293100	      2.01124500	      1.21549300	     -0.28562000	      1.95903200	      0.49512200	     -0.19869300	      2.06187100	      0.56620000	     -0.48339800	      1.90954100	      0.56585100	     -0.14640500	      1.98051900	      0.58752200	     -0.43671600	      1.86920200	      0.48815500	     -0.14695500	      2.02280900	      0.51307300	     -0.41812200	      1.52282900	      0.23010500	     -0.08200500	      2.15959500	      0.20328000	     -0.31231500	      1.52788100	      0.23099200	     -0.12431300	      2.12297700	      0.19753500	     -0.32529400	      1.50586600	      0.05136500	     -0.16718700	      2.18782300	      0.04669700	     -0.35280300	     27.65698250	    105.21326421	      5.33225456	      1.53077283	      0.00000000	     -0.18430078	   -104.21119287	    589.40404847	     19.59159408	      2.08292236	      0.00000000	     -0.34293488	      0.00000000	      0.15526492	      0.00000000	      0.00000000	      1.39615283	      0.00000000	      1.89384770	      0.79693961	     -0.28363356	      1.87379241	      0.76650476	     -0.19808839	      1.87488353	      0.78010160	     -0.34960321	      1.75778067	      0.41753060	     -0.19158716	      2.05393362	      0.42946202	     -0.33910483	      1.48599017	      0.14954434	     -0.18612882	      2.07700205	      0.06855509	     -0.33319941	      1.96417642	      0.84725529	     -0.26350987	      1.95945215	      0.83657408	     -0.14602447	      1.96890080	      0.85793650	     -0.38099524	      1.76955426	      0.90593392	     -0.24366327	      1.76530802	      0.90319395	     -0.29905397	      1.75802958	      0.41852823	     -0.13359627	      2.06826115	      0.43510398	     -0.39502341	      1.76643205	      0.41701016	     -0.24920851	      2.05909204	      0.44398248	     -0.27599034	      1.47419953	      0.16223659	     -0.15007482	      2.07024431	      0.06747829	     -0.37260976	      1.49807084	      0.14629732	     -0.21808067	      2.08772874	      0.07853766	     -0.30754969	      1.84529269	      1.34690380	     -0.27156678	      1.97779405	      1.29124105	     -0.23091927	      1.96737540	      1.28275394	     -0.33751747	      1.96915960	      1.28385210	     -0.28293094	      2.01124525	      1.21549296	     -0.28561994	      1.95903182	      0.49512216	     -0.19869287	      2.06187081	      0.56620038	     -0.48339790	      1.90954137	      0.56585145	     -0.14640538	      1.98051882	      0.58752245	     -0.43671587	      1.86920202	      0.48815483	     -0.14695537	      2.02280903	      0.51307333	     -0.41812184	      1.52282906	      0.23010464	     -0.08200508	      2.15959477	      0.20327954	     -0.31231514	      1.52788079	      0.23099190	     -0.12431282	      2.12297678	      0.19753513	     -0.32529432	      1.50586617	      0.05136532	     -0.16718689	      2.18782282	      0.04669738	     -0.35280317
